<mxfile host="app.diagrams.net" modified="2021-11-08T09:43:12.599Z" agent="5.0 (Windows NT 10.0; Win64; x64) AppleWebKit/537.36 (KHTML, like Gecko) Chrome/95.0.4638.69 Safari/537.36" etag="MzYy12Mdvj3peSnrlokq" version="15.7.0" type="github" pages="2">
  <diagram id="rtK_42Ozbw3gwIf0vHBe" name="Page-1">
    <mxGraphModel dx="868" dy="482" grid="1" gridSize="10" guides="1" tooltips="1" connect="1" arrows="1" fold="1" page="1" pageScale="1" pageWidth="850" pageHeight="1100" math="0" shadow="0">
      <root>
        <mxCell id="0" />
        <mxCell id="1" parent="0" />
        <mxCell id="Gk71tdSCRvJAxeu6cht0-1" value="" style="endArrow=classic;html=1;" parent="1" edge="1">
          <mxGeometry width="50" height="50" relative="1" as="geometry">
            <mxPoint x="480" y="200" as="sourcePoint" />
            <mxPoint x="200" y="200" as="targetPoint" />
          </mxGeometry>
        </mxCell>
        <mxCell id="Gk71tdSCRvJAxeu6cht0-2" value="" style="endArrow=none;html=1;" parent="1" edge="1">
          <mxGeometry width="50" height="50" relative="1" as="geometry">
            <mxPoint x="280" y="220" as="sourcePoint" />
            <mxPoint x="280" y="180" as="targetPoint" />
            <Array as="points">
              <mxPoint x="280" y="220" />
              <mxPoint x="280" y="200" />
            </Array>
          </mxGeometry>
        </mxCell>
        <mxCell id="Gk71tdSCRvJAxeu6cht0-3" value="" style="endArrow=none;html=1;" parent="1" edge="1">
          <mxGeometry width="50" height="50" relative="1" as="geometry">
            <mxPoint x="399" y="220" as="sourcePoint" />
            <mxPoint x="399" y="180" as="targetPoint" />
            <Array as="points">
              <mxPoint x="399" y="220" />
              <mxPoint x="399" y="200" />
            </Array>
          </mxGeometry>
        </mxCell>
        <mxCell id="Gk71tdSCRvJAxeu6cht0-4" value="&lt;font face=&quot;Times New Roman&quot; style=&quot;font-size: 14px&quot;&gt;5&lt;/font&gt;" style="text;html=1;strokeColor=none;fillColor=none;align=center;verticalAlign=middle;whiteSpace=wrap;rounded=0;" parent="1" vertex="1">
          <mxGeometry x="260" y="160" width="40" height="20" as="geometry" />
        </mxCell>
        <mxCell id="Gk71tdSCRvJAxeu6cht0-5" value="&lt;span style=&quot;font-family: &amp;#34;times new roman&amp;#34; ; font-size: 14px&quot;&gt;5&lt;/span&gt;" style="text;html=1;strokeColor=none;fillColor=none;align=center;verticalAlign=middle;whiteSpace=wrap;rounded=0;" parent="1" vertex="1">
          <mxGeometry x="379" y="155" width="40" height="30" as="geometry" />
        </mxCell>
        <mxCell id="Gk71tdSCRvJAxeu6cht0-12" value="&lt;font face=&quot;Times New Roman&quot; style=&quot;font-size: 14px&quot;&gt;4&lt;/font&gt;" style="text;html=1;strokeColor=none;fillColor=none;align=center;verticalAlign=middle;whiteSpace=wrap;rounded=0;" parent="1" vertex="1">
          <mxGeometry x="260" y="220" width="20" height="20" as="geometry" />
        </mxCell>
        <mxCell id="Gk71tdSCRvJAxeu6cht0-13" value="&lt;font face=&quot;Times New Roman&quot; style=&quot;font-size: 14px&quot;&gt;6&lt;/font&gt;" style="text;html=1;strokeColor=none;fillColor=none;align=center;verticalAlign=middle;whiteSpace=wrap;rounded=0;" parent="1" vertex="1">
          <mxGeometry x="280" y="220" width="20" height="20" as="geometry" />
        </mxCell>
        <mxCell id="Gk71tdSCRvJAxeu6cht0-14" value="&lt;span style=&quot;font-family: &amp;#34;times new roman&amp;#34; ; font-size: 14px&quot;&gt;6&lt;/span&gt;" style="text;html=1;strokeColor=none;fillColor=none;align=center;verticalAlign=middle;whiteSpace=wrap;rounded=0;" parent="1" vertex="1">
          <mxGeometry x="399" y="220" width="30" height="20" as="geometry" />
        </mxCell>
        <mxCell id="Gk71tdSCRvJAxeu6cht0-15" value="&lt;span style=&quot;font-family: &amp;#34;times new roman&amp;#34; ; font-size: 14px&quot;&gt;4&lt;/span&gt;" style="text;html=1;strokeColor=none;fillColor=none;align=center;verticalAlign=middle;whiteSpace=wrap;rounded=0;" parent="1" vertex="1">
          <mxGeometry x="369" y="220" width="30" height="20" as="geometry" />
        </mxCell>
      </root>
    </mxGraphModel>
  </diagram>
  <diagram id="EWZPs77Lei31P8reGlVd" name="Page-2">
    <mxGraphModel dx="868" dy="482" grid="1" gridSize="10" guides="1" tooltips="1" connect="1" arrows="1" fold="1" page="1" pageScale="1" pageWidth="850" pageHeight="1100" math="0" shadow="0">
      <root>
        <mxCell id="GmCdzxspj2TNpGXOHgaB-0" />
        <mxCell id="GmCdzxspj2TNpGXOHgaB-1" parent="GmCdzxspj2TNpGXOHgaB-0" />
        <mxCell id="GmCdzxspj2TNpGXOHgaB-2" value="" style="ellipse;html=1;shape=endState;fillColor=#000000;strokeColor=#ff0000;" parent="GmCdzxspj2TNpGXOHgaB-1" vertex="1">
          <mxGeometry x="392" y="727" width="30" height="30" as="geometry" />
        </mxCell>
        <mxCell id="GmCdzxspj2TNpGXOHgaB-3" value="" style="ellipse;whiteSpace=wrap;html=1;aspect=fixed;fillColor=#000000;" parent="GmCdzxspj2TNpGXOHgaB-1" vertex="1">
          <mxGeometry x="392" y="177" width="28" height="28" as="geometry" />
        </mxCell>
        <mxCell id="GmCdzxspj2TNpGXOHgaB-4" value="Login Page" style="rounded=1;whiteSpace=wrap;html=1;fillColor=#FFFFFF;" parent="GmCdzxspj2TNpGXOHgaB-1" vertex="1">
          <mxGeometry x="366" y="247" width="80" height="40" as="geometry" />
        </mxCell>
        <mxCell id="GmCdzxspj2TNpGXOHgaB-5" value="Insert Phone Number" style="rounded=1;whiteSpace=wrap;html=1;fillColor=#FFFFFF;" parent="GmCdzxspj2TNpGXOHgaB-1" vertex="1">
          <mxGeometry x="287" y="367" width="80" height="40" as="geometry" />
        </mxCell>
        <mxCell id="GmCdzxspj2TNpGXOHgaB-6" value="Insert Email" style="rounded=1;whiteSpace=wrap;html=1;fillColor=#FFFFFF;" parent="GmCdzxspj2TNpGXOHgaB-1" vertex="1">
          <mxGeometry x="447" y="367" width="80" height="40" as="geometry" />
        </mxCell>
        <mxCell id="GmCdzxspj2TNpGXOHgaB-7" value="Password" style="rounded=1;whiteSpace=wrap;html=1;fillColor=#FFFFFF;" parent="GmCdzxspj2TNpGXOHgaB-1" vertex="1">
          <mxGeometry x="367" y="487" width="80" height="40" as="geometry" />
        </mxCell>
        <mxCell id="GmCdzxspj2TNpGXOHgaB-8" value="Homepage" style="rounded=1;whiteSpace=wrap;html=1;fillColor=#FFFFFF;" parent="GmCdzxspj2TNpGXOHgaB-1" vertex="1">
          <mxGeometry x="367" y="647" width="80" height="40" as="geometry" />
        </mxCell>
        <mxCell id="GmCdzxspj2TNpGXOHgaB-9" value="" style="endArrow=classic;html=1;rounded=0;exitX=0.5;exitY=1;exitDx=0;exitDy=0;entryX=0.5;entryY=0;entryDx=0;entryDy=0;" parent="GmCdzxspj2TNpGXOHgaB-1" source="GmCdzxspj2TNpGXOHgaB-4" target="GmCdzxspj2TNpGXOHgaB-5" edge="1">
          <mxGeometry width="50" height="50" relative="1" as="geometry">
            <mxPoint x="247" y="387" as="sourcePoint" />
            <mxPoint x="297" y="337" as="targetPoint" />
            <Array as="points">
              <mxPoint x="407" y="327" />
              <mxPoint x="327" y="327" />
            </Array>
          </mxGeometry>
        </mxCell>
        <mxCell id="GmCdzxspj2TNpGXOHgaB-10" value="" style="endArrow=classic;html=1;rounded=0;entryX=0.5;entryY=0;entryDx=0;entryDy=0;" parent="GmCdzxspj2TNpGXOHgaB-1" target="GmCdzxspj2TNpGXOHgaB-6" edge="1">
          <mxGeometry width="50" height="50" relative="1" as="geometry">
            <mxPoint x="327" y="327" as="sourcePoint" />
            <mxPoint x="487" y="287" as="targetPoint" />
            <Array as="points">
              <mxPoint x="487" y="327" />
            </Array>
          </mxGeometry>
        </mxCell>
        <mxCell id="GmCdzxspj2TNpGXOHgaB-11" value="" style="endArrow=classic;html=1;rounded=0;entryX=0.5;entryY=0;entryDx=0;entryDy=0;exitX=0.5;exitY=1;exitDx=0;exitDy=0;" parent="GmCdzxspj2TNpGXOHgaB-1" source="GmCdzxspj2TNpGXOHgaB-5" target="GmCdzxspj2TNpGXOHgaB-7" edge="1">
          <mxGeometry width="50" height="50" relative="1" as="geometry">
            <mxPoint x="387" y="457" as="sourcePoint" />
            <mxPoint x="437" y="407" as="targetPoint" />
            <Array as="points">
              <mxPoint x="327" y="447" />
              <mxPoint x="407" y="447" />
            </Array>
          </mxGeometry>
        </mxCell>
        <mxCell id="GmCdzxspj2TNpGXOHgaB-12" value="" style="endArrow=none;html=1;rounded=0;entryX=0.5;entryY=1;entryDx=0;entryDy=0;" parent="GmCdzxspj2TNpGXOHgaB-1" target="GmCdzxspj2TNpGXOHgaB-6" edge="1">
          <mxGeometry width="50" height="50" relative="1" as="geometry">
            <mxPoint x="407" y="447" as="sourcePoint" />
            <mxPoint x="567" y="457" as="targetPoint" />
            <Array as="points">
              <mxPoint x="487" y="447" />
            </Array>
          </mxGeometry>
        </mxCell>
        <mxCell id="GmCdzxspj2TNpGXOHgaB-14" value="Validation Account" style="rounded=1;whiteSpace=wrap;html=1;fillColor=#FFFFFF;" parent="GmCdzxspj2TNpGXOHgaB-1" vertex="1">
          <mxGeometry x="367" y="567" width="80" height="40" as="geometry" />
        </mxCell>
        <mxCell id="GmCdzxspj2TNpGXOHgaB-15" value="" style="endArrow=classic;html=1;rounded=0;exitX=0.5;exitY=1;exitDx=0;exitDy=0;entryX=0.5;entryY=0;entryDx=0;entryDy=0;" parent="GmCdzxspj2TNpGXOHgaB-1" source="GmCdzxspj2TNpGXOHgaB-7" target="GmCdzxspj2TNpGXOHgaB-14" edge="1">
          <mxGeometry width="50" height="50" relative="1" as="geometry">
            <mxPoint x="577" y="607" as="sourcePoint" />
            <mxPoint x="627" y="557" as="targetPoint" />
          </mxGeometry>
        </mxCell>
        <mxCell id="GmCdzxspj2TNpGXOHgaB-16" value="" style="endArrow=classic;html=1;rounded=0;exitX=0.5;exitY=1;exitDx=0;exitDy=0;entryX=0.5;entryY=0;entryDx=0;entryDy=0;" parent="GmCdzxspj2TNpGXOHgaB-1" source="GmCdzxspj2TNpGXOHgaB-14" target="GmCdzxspj2TNpGXOHgaB-8" edge="1">
          <mxGeometry width="50" height="50" relative="1" as="geometry">
            <mxPoint x="687" y="637" as="sourcePoint" />
            <mxPoint x="737" y="587" as="targetPoint" />
          </mxGeometry>
        </mxCell>
        <mxCell id="GmCdzxspj2TNpGXOHgaB-17" value="" style="endArrow=classic;html=1;rounded=0;exitX=0.5;exitY=1;exitDx=0;exitDy=0;entryX=0.5;entryY=0;entryDx=0;entryDy=0;" parent="GmCdzxspj2TNpGXOHgaB-1" source="GmCdzxspj2TNpGXOHgaB-8" target="GmCdzxspj2TNpGXOHgaB-2" edge="1">
          <mxGeometry width="50" height="50" relative="1" as="geometry">
            <mxPoint x="527" y="737" as="sourcePoint" />
            <mxPoint x="577" y="687" as="targetPoint" />
          </mxGeometry>
        </mxCell>
        <mxCell id="GmCdzxspj2TNpGXOHgaB-18" value="" style="endArrow=classic;html=1;rounded=0;exitX=1;exitY=0.5;exitDx=0;exitDy=0;entryX=1;entryY=0.5;entryDx=0;entryDy=0;" parent="GmCdzxspj2TNpGXOHgaB-1" source="GmCdzxspj2TNpGXOHgaB-14" target="GmCdzxspj2TNpGXOHgaB-4" edge="1">
          <mxGeometry width="50" height="50" relative="1" as="geometry">
            <mxPoint x="627" y="607" as="sourcePoint" />
            <mxPoint x="677" y="557" as="targetPoint" />
            <Array as="points">
              <mxPoint x="567" y="587" />
              <mxPoint x="567" y="417" />
              <mxPoint x="567" y="267" />
            </Array>
          </mxGeometry>
        </mxCell>
        <mxCell id="GmCdzxspj2TNpGXOHgaB-19" value="" style="endArrow=classic;html=1;rounded=0;entryX=0.5;entryY=0;entryDx=0;entryDy=0;" parent="GmCdzxspj2TNpGXOHgaB-1" source="GmCdzxspj2TNpGXOHgaB-3" target="GmCdzxspj2TNpGXOHgaB-4" edge="1">
          <mxGeometry width="50" height="50" relative="1" as="geometry">
            <mxPoint x="407" y="207" as="sourcePoint" />
            <mxPoint x="307" y="177" as="targetPoint" />
          </mxGeometry>
        </mxCell>
        <mxCell id="GmCdzxspj2TNpGXOHgaB-20" value="Yes" style="text;html=1;strokeColor=none;fillColor=none;align=center;verticalAlign=middle;whiteSpace=wrap;rounded=0;" parent="GmCdzxspj2TNpGXOHgaB-1" vertex="1">
          <mxGeometry x="407" y="537" width="50" height="20" as="geometry" />
        </mxCell>
        <mxCell id="GmCdzxspj2TNpGXOHgaB-21" value="No" style="text;html=1;strokeColor=none;fillColor=none;align=center;verticalAlign=middle;whiteSpace=wrap;rounded=0;" parent="GmCdzxspj2TNpGXOHgaB-1" vertex="1">
          <mxGeometry x="457" y="557" width="50" height="30" as="geometry" />
        </mxCell>
      </root>
    </mxGraphModel>
  </diagram>
</mxfile>
